grf
version=1
nRows=6
nColumns=37
inDegrees=no
endheader
time	ground_force_1_vx	ground_force_1_vy	ground_force_1_vz	ground_force_1_px	ground_force_1_py	ground_force_1_pz	ground_moment_1_mx	ground_moment_1_my	ground_moment_1_mz	ground_force_2_vx	ground_force_2_vy	ground_force_2_vz	ground_force_2_px	ground_force_2_py	ground_force_2_pz	ground_moment_2_mx	ground_moment_2_my	ground_moment_2_mz	ground_force_3_vx	ground_force_3_vy	ground_force_3_vz	ground_force_3_px	ground_force_3_py	ground_force_3_pz	ground_moment_3_mx	ground_moment_3_my	ground_moment_3_mz	ground_force_4_vx	ground_force_4_vy	ground_force_4_vz	ground_force_4_px	ground_force_4_py	ground_force_4_pz	ground_moment_4_mx	ground_moment_4_my	ground_moment_4_mz
      0.00000000	      0.00000000	     -0.00000000	      0.00000000	      0.00000000	      0.00000000	      0.00000000	      0.00000000	      0.00000000	      0.00000000	     -2.98966932	     36.99673462	   -299.46643066	   -330.66696831	  -1082.02692655	      0.00000000	      0.00000000	      0.00000000	   1806.59314761	     -5.69275631	    -56.03109310	   -413.71466064	   -316.85388478	   -679.58099353	      0.00000000	      0.00000000	     -0.00000000	  -1705.04381735	      0.00000000	     -0.00000000	      0.00000000	      0.00000000	      0.00000000	      0.00000000	      0.00000000	      0.00000000	      0.00000000
      0.01000000	      0.00000000	     -0.00000000	      0.00000000	      0.00000000	      0.00000000	      0.00000000	      0.00000000	      0.00000000	      0.00000000	     -3.11481166	     36.67789459	   -296.87478638	   -331.98794736	  -1080.57975278	      0.00000000	      0.00000000	      0.00000000	   1887.06009844	     -5.36596309	    -55.81177092	   -414.93283081	   -316.72393238	   -679.14331735	      0.00000000	      0.00000000	      0.00000000	  -1647.44257698	      0.00000000	     -0.00000000	      0.00000000	      0.00000000	      0.00000000	      0.00000000	      0.00000000	      0.00000000	      0.00000000
      0.02000000	      0.00000000	     -0.00000000	      0.00000000	      0.00000000	      0.00000000	      0.00000000	      0.00000000	      0.00000000	      0.00000000	     -3.04063821	     36.64754868	   -294.55206299	   -330.15215644	  -1080.83826864	      0.00000000	     -0.00000000	      0.00000000	   1898.04647254	     -4.50927178	    -56.37042960	   -415.02334595	   -316.99107521	   -679.15450194	      0.00000000	      0.00000000	     -0.00000000	  -1509.18314202	      0.00000000	     -0.00000000	      0.00000000	      0.00000000	      0.00000000	      0.00000000	      0.00000000	      0.00000000	      0.00000000
      0.03000000	      0.00000000	     -0.00000000	      0.00000000	      0.00000000	      0.00000000	      0.00000000	      0.00000000	      0.00000000	      0.00000000	     -3.47179317	     37.25672150	   -296.96563721	   -330.03507358	  -1082.13600638	      0.00000000	      0.00000000	      0.00000000	   1888.36348177	     -3.90327945	    -56.24612774	   -416.15948486	   -316.75910732	   -679.30759507	      0.00000000	      0.00000000	     -0.00000000	  -1572.54408205	      0.00000000	     -0.00000000	      0.00000000	      0.00000000	      0.00000000	      0.00000000	      0.00000000	      0.00000000	      0.00000000
      0.04000000	      0.00000000	     -0.00000000	      0.00000000	      0.00000000	      0.00000000	      0.00000000	      0.00000000	      0.00000000	      0.00000000	     -3.56106782	     36.72907257	   -296.31799316	   -328.82746864	  -1083.30410841	      0.00000000	      0.00000000	      0.00000000	   1705.36390521	     -3.64451116	    -56.52587859	   -418.25463867	   -316.67430996	   -678.85714357	      0.00000000	      0.00000000	     -0.00000000	  -1534.50606924	      0.00000000	     -0.00000000	      0.00000000	      0.00000000	      0.00000000	      0.00000000	      0.00000000	      0.00000000	      0.00000000
      0.05000000	      0.00000000	     -0.00000000	      0.00000000	      0.00000000	      0.00000000	      0.00000000	      0.00000000	      0.00000000	      0.00000000	     -3.46465564	     37.22742462	   -295.61163330	   -330.07686865	  -1081.85936885	      0.00000000	      0.00000000	      0.00000000	   1982.37833937	     -3.28230398	    -56.49561663	   -419.94335938	   -317.03261250	   -678.60316765	      0.00000000	     -0.00000000	     -0.00000000	  -1444.83277106	      0.00000000	     -0.00000000	      0.00000000	      0.00000000	      0.00000000	      0.00000000	      0.00000000	      0.00000000	      0.00000000
